<svg id="Capa_1" data-name="Capa 1" xmlns="http://www.w3.org/2000/svg" viewBox="0 0 34.02 34.02"><defs><style>.cls-1{fill:#4d62ab;}.cls-2{fill:#fff;}</style></defs><title>facebook</title><path class="cls-1" d="M239.6,153.37a17,17,0,1,0-17-17,17,17,0,0,0,17,17" transform="translate(-222.6 -119.35)"/><path class="cls-2" d="M235.5,133.48h1.76v-1.71a4.57,4.57,0,0,1,.57-2.64,3.12,3.12,0,0,1,2.73-1.28,11,11,0,0,1,3.15.32l-.44,2.6a6,6,0,0,0-1.42-.21c-.68,0-1.29.25-1.29.93v2h2.8l-.2,2.54h-2.6v8.84h-3.3V136H235.5Z" transform="translate(-222.6 -119.35)"/></svg>